<?xml version="1.0" encoding="utf-8"?>
<!-- Generator: Adobe Illustrator 21.0.0, SVG Export Plug-In . SVG Version: 6.00 Build 0)  -->
<svg version="1.1" id="Layer_1" fill="white" xmlns="http://www.w3.org/2000/svg" xmlns:xlink="http://www.w3.org/1999/xlink" x="0px" y="0px"
	 viewBox="0 0 1500 1500" style="enable-background:new 0 0 1500 1500;" xml:space="preserve">
<g>
	<path d="M719.3,433.7c-4.9-5-7.5-10.9-14.6-13.5c-7.7-2.8-10.5-11.1-15.2-17.2c6.6,3.8,9.5,12.5,18.3,13.6c0.6-3.3-1.3-6.2-0.3-9.5
		c1.5-4.7,5-8.3,9-8c4.7,0.4,7.5,3.1,8.7,7.7c1.3,5.4,1,10.4-3.9,13.9c-1.5,1.1-1.5,2-0.5,3.2c2.9,3.6,5.9,7.1,10.9,9.1
		c0.3-10-0.3-19.4,1.1-28.8c2.2-15.2,6.6-29.5,16.3-41.8c2-2.6,4.1-3.4,7.2-2.5c7.2,2.1,13.7,5.1,18.1,11.5c1.9,2.8,2.1,4.6-0.6,7.2
		c-12.5,12.4-22.3,26.5-27,43.7c-0.4,1.6-1.1,3.2-0.4,5.6c8.5-9.3,20-9.9,31-12c9.6-1.8,17.1-7.1,23.2-15.3c0.7,2.6-0.6,4-1.4,5.4
		c-5.3,8.9-13.4,13.6-23.2,16c-5,1.2-10.1,2.2-14.9,4.2c-4.9,2-8.9,5.1-11.2,10.9c7.1-1.6,13.7-3.2,20.3-4.6
		c12.9-2.7,25.9-4.4,39.2-2.7c20.1,2.5,35.9,12.2,45,30.1c16.4,32.1,17.2,65.1,0.3,97.3c-12.5,23.7-34,34.3-60.2,37.3
		c-17.5,2-34.4-2.5-51.6-3.5c-10.1-0.6-19.8,1.5-29.7,2.8c-15.8,2.1-31.6,1.8-46.9-3c-26.2-8.2-42.2-26.4-49.6-52.3
		c-6.5-23-5.2-45.8,3.2-68.1c11.1-29.5,37-44.7,69.4-40.9C699.2,430.6,708.9,432.2,719.3,433.7z M754.1,566.5
		c20.5-2.5,39.1-7.2,54.8-19.6c7.1-5.6,12.6-12.4,14.6-21.5c0.7-3,0-4.9-3.7-3.9c-9.3,2.5-18.8,4.1-28.4,5.4c-3.4,0.5-4.5,1.8-4.3,5
		c0.3,8.1,0.4,9.1-9.8,9.4c-1,0-2,0-3,0c-5.7-0.1-7.2-1.2-7.2-7c0-4.5-1.8-5.1-5.8-4.7c-13.8,1.2-27.6,1-41.4,0.2
		c-6.9-0.4-7-0.7-7.4,6c-0.2,3.2-1.6,5.4-4.7,5.1c-5-0.4-10.7,3-14.7-2.7c-0.3-0.5-0.2-1.3-0.3-2c0-1.5-0.2-3,0-4.5
		c0.3-3.1-0.9-4.3-4.1-4.8c-9-1.4-18-3.2-26.9-5c-5.9-1.2-6.5-0.7-5,5.2c2.3,9,8.3,15.4,15.6,20.7c15.1,11,32.4,16,50.7,18
		c6.5,0.7,6.5,0.4,6.9-6.1c0.4-6,1.3-6.9,7.2-7c1.5,0,3,0,4.5,0c8.1,0,8.5,0.3,8.3,8.5C749.7,565.5,750.3,568,754.1,566.5z
		 M811.2,496.9c1,0,1.7,0,2.4,0c2.1-0.2,4.7,0.3,5.7-2.1c0.8-1.9-1.2-3.3-2.2-4.7c-5.5-7.7-11-15.4-16.6-23
		c-3.7-5.1-6.5-5.4-10.1-0.5c-6.3,8.3-12.4,16.8-18.5,25.3c-2.2,3.1-1.3,4.8,2.6,5.1c5.8,0.4,11.7,0.8,14.6-6.1
		c0.6-1.3,1.7-2.5,2.8-3.5c2.5-2.2,5.1-2.3,7.4,0.3c1.3,1.5,2.6,3.1,3.5,4.8C804.7,496,807.3,498.1,811.2,496.9z M700.4,496.8
		c1,0,2,0,3,0c1.8-0.1,3.9,0.1,4.9-1.8c1.1-2.1-0.8-3.4-1.8-4.8c-5.8-8.1-11.6-16.3-17.6-24.3c-2.8-3.8-5.7-4-8.5-0.4
		c-6.7,8.7-13.1,17.6-19.5,26.5c-2,2.7-0.8,4.5,2.3,4.7c6,0.5,12.1,1,15.2-6.1c0.4-0.9,1.1-1.6,1.8-2.4c3.1-3.7,6.1-3.7,9,0
		c1.1,1.4,2.4,2.8,3.2,4.4C694.1,496.3,696.6,497.8,700.4,496.8z M738.6,511.1c1,0,1.5,0,2,0c11.4-0.2,11.5-0.2,5.6-10
		c-5.8-9.6-4.8-13.6-12.9,0c-1.6,2.7-5.3,5.6-3.5,8.7C731.6,512.9,735.9,510.5,738.6,511.1z M720.1,411.3c-0.2-2.2,0.1-5.1-3-5.4
		c-2.6-0.2-3.1,2.3-2.8,4.3c0.4,2.4,0.2,6.1,3.3,6.3C720.4,416.6,719.8,413.4,720.1,411.3z"/>
	<path d="M969.2,382.6c4.5,2.9,6.1,6.8,7.9,10.4c11.5,23,17.1,47.5,17.4,73.2c0.2,19-3,37.5-11.1,54.8
		c-10.5,22.3-26.6,39.2-49.5,50.4c2.7,1.6,5.4,2.1,8,2.7c2.6,0.6,5.2,1.3,7.8,1.7c39,7.2,76.2,2.1,111.6-16
		c11.2-5.7,11.2-5.8,4.4-16.1c-13.3-20.4-14.1-44.5-1.8-62c9.3-13.3,22.3-18.7,38.2-16.6c20.2,2.7,32.2,21.1,27.4,41.6
		c-2.8,12-9.1,22.1-17.4,31c-3.4,3.6-7.1,7-10.9,10.3c-7.6,6.6-7.6,6.5,0.9,12.5c15.1,10.5,31.9,17.8,48.6,25.3
		c17.6,7.9,35.2,16.1,50.4,28.3c17.5,14.1,29.6,31.4,32.4,54.3c0.9,7.7-0.1,15.2-2.5,23.3c5.1-1.9,9.6-4,14.5-4.7
		c17.4-2.3,30.9,4.8,41.4,18c10.1,12.7,13.5,28,16.1,43.5c2.5,14.8,3.7,29.8,7.9,44.2c2.5,8.5,5.9,16.6,11.3,23.8
		c9.6,12.8,22.4,19,38.4,18.3c1.6-0.1,3.3-0.9,5.2,0.6c-2.9,3.9-7.2,5.1-11.5,5.7c-17.3,2.5-30.9-4.5-41.9-17.2
		c-11.9-13.7-16.6-30.4-19.8-47.8c-2.5-13.7-3.5-27.7-6.9-41.2c-0.8-3.1-1.6-6.1-2.6-9.1c-6.2-18.3-21.5-35.7-50.5-29.3
		c-5.9,1.3-5.8,1-5-4.9c3.8-26-6.6-46.5-25.6-63.3c-15.1-13.3-33.2-21.4-51.5-29.1c-18.9-8-38-15.3-55.1-26.8c-2.3-1.6-5-2.9-6.8-5
		c-4.5-5-8.7-4-13.9-1c-24.8,14.2-51.8,20.9-80.1,21.5c-21.9,0.5-43-3.9-62.9-13.3c-3.4-1.6-4.7-3.7-3.9-7.4
		c2.7-13.4,5.8-26.6,7.7-40.1c4.2-31,3.1-61.4-9.6-90.6c-10.4-23.9-27.6-42.1-48.2-57.5c-5.2-3.9-10.5-7.6-15.7-11.6
		c-1.4-1-3.3-1.8-3.2-4.4c4.7-0.2,8.9,1.6,12.9,3.4c46.2,20.7,72.8,56.1,78.5,106.7c3.3,29.2-1.8,57.4-12.7,84.6
		c-0.4,0.9-0.7,1.9-1,2.8c0,0.1,0.1,0.3,0.2,1c7.6-6.2,14.1-13.2,19.9-20.8c14.1-18.7,21.3-39.9,23.5-63.2
		c2.5-27.1-2.8-53.3-8.5-79.5C970.3,393.3,968.7,388.5,969.2,382.6z M1098.4,479.3c-12.5-0.3-19.7,4.5-24.3,13
		c-8.2,15.1-5.2,29.5,3.3,43.4c6.4,10.3,6.5,10.3,15.3,2.4c2.4-2.1,4.7-4.2,6.9-6.5c7-7.3,12.8-15.3,15.6-25.2
		C1119.6,490.9,1111.5,479.3,1098.4,479.3z"/>
	<path d="M248.4,691.5c-8.1-33,6.1-57.1,30.1-77.1c13.8-11.5,30-19.2,46.2-26.5c15.6-7.1,31.5-13.6,46.1-22.8
		c3.8-2.4,7.3-5.2,11-7.8c3.1-2.2,3.1-4-0.1-6.4c-11.5-9-21.6-19.3-27.8-32.9c-5.3-11.7-7.2-23.6-1-35.6c11.5-22.2,45-24,61.2-3
		c12.2,15.8,13,33.3,6.3,51.5c-2.5,6.8-6,13-10.8,18.5c-2.7,3.1-1.9,4.4,1.2,6.2c21,12.3,43.6,19.7,67.7,22.4
		c22.8,2.5,45.2,0.7,67.6-6.4c-21.3-10.1-37.1-25.3-47.7-45.7c-11.2-21.5-14.8-44.5-13-68.6c1.7-22.7,7.1-44.3,17.4-64.5
		c1.8-3.5,3.8-7,7.3-9.8c1.3,2.2,0.7,4.2,0.2,6.2c-3.8,16.7-8,33.3-10,50.4c-3.8,33.1-0.9,64.9,17.6,93.7
		c6.8,10.6,15.1,19.8,26,28.4c-4.2-9.9-7.7-18.9-9.9-28.3c-8.4-34.9-8.4-69.4,6.9-102.5c14.8-32.1,39.5-53.9,72.6-66.1
		c1.9-0.7,3.8-1.1,5.8-1.6c0.6-0.1,1.3,0,2.3,0.1c-1.1,3.7-4.3,5-6.9,6.8c-11.9,8.5-23.8,17.1-34.2,27.5
		c-22.8,22.9-34.7,50.7-37.7,82.7c-2.7,28.5,2.4,56.1,8.5,83.6c1.8,8.2,1.9,8.4-5.5,12c-13.6,6.6-28.2,9.9-43.2,11.3
		c-36.2,3.4-70-4.5-101.5-22.6c-1.8-1-3.4-1.9-5.5-0.3c-22.8,18.1-49.9,27.7-76.1,39.1c-16.4,7.1-32.3,15.3-45.2,28
		c-17.2,17-26.3,37-21.8,61.7c0.6,3.5-0.4,4.1-3.5,3.6c-3.6-0.6-7.2-1.2-10.9-1.3c-17.4-0.9-31.4,7.7-39.1,24
		c-6.4,13.6-8,28.4-10.1,43.1c-2.2,15.3-4.6,30.7-11.3,44.8c-7.7,16.1-18.6,28.8-36.8,33.4c-8.3,2.1-16.5,2-24.1-2.5
		c-1-0.6-2.7-1.3-2.1-2.8c0.5-1.3,2-0.7,3.2-0.6c20.7,1.4,35-8.3,44.5-26c6.8-12.7,9.2-26.6,11.3-40.6c2.3-15.1,3.8-30.4,9.2-44.8
		c6.6-17.4,17.4-30.6,36.2-35.5C229.3,684.9,238.9,687.2,248.4,691.5z M410,510.7c0.1-9.7-2.7-18.4-9.9-25.2
		c-7.5-7.2-20.1-8.5-28.7-3.1c-7.7,4.8-10.2,14.1-6.7,24.9c5.1,15.6,16.5,26.2,28.8,36.1c1.4,1.2,2.5,1.1,3.7-0.5
		C404.6,533.4,410.1,523.2,410,510.7z"/>
	<path d="M822,899.4c-4.6,11-7.2,21.8-9.8,32.5c-3.3,13.7-7.2,27.4-7.1,41.7c0,3.1-1.7,5.2-5.3,3.3c-7-3.8-14-7.4-22.4-7.5
		c-3.7-0.1-3.5-4.4-2.2-6.3c6.9-10.2,4.5-21.1,3.2-31.9c-1.8-16-3.8-32-5.8-48c-2-16.3-4.3-32.6-7.9-48.6c-1.1-4.9-2.5-9.7-6.8-13
		c-1.9-1.5-1.3-3.1-0.4-4.9c0.9-1.8,2.1-3,4.3-2.2c8.3,3.2,16,1.4,23.6-2.3c1.5-0.7,3.3-2.4,5-0.5c1.4,1.5,2.3,3.8,1.4,5.6
		c-3.6,7.2-2.5,14.9-1.7,22.1c3.3,27.4,4.8,55.1,11,82.1c0.3,1.3,0.7,2.5,1.5,5.2c2.9-9.8,5.5-18.4,8.1-27
		c3.8-12.7,7.1-25.6,11.8-38.1c0.8-2,1.5-4,2.4-6c0.9-2,2-4,4.7-3.8c2.5,0.1,3.2,2.3,3.8,4.1c3.9,13.4,7.9,26.8,11.5,40.3
		c3.3,12.4,6.1,24.9,9.2,37.3c0.3,1.4,0.8,2.7,1.7,5.4c1.4-10.6,2.6-19.8,3.8-29c2.9-21.1,5.9-42.1,8.6-63.2
		c1.3-10.8,4.2-21.6,1.6-32.7c-0.5-2.1-1.3-4.1-2.4-6c-1.2-2-0.4-3.8,0.8-5.5c1.4-2,3-0.8,4.4-0.2c7.5,3.3,14.6,1.7,21.6-1.7
		c1.7-0.8,4-3.4,6-0.1c1.8,2.9-0.3,4.5-2.3,6.2c-5.7,4.8-8.8,11.1-10.9,18.1c-6.1,20.3-9.4,41.2-11.8,62.2
		c-2.4,20.8-6,41.5-7.7,62.4c-0.6,7.3-1,14.6-1.3,21.9c-0.1,3,1.1,5.8,2.4,8.6c2,4.2,1,6.1-3.5,7.1c-6.5,1.4-12.4,3.8-17.1,8.6
		c-1,1-2.2,2.2-3.9,1c-1.1-0.8-1.5-1.9-1.1-3.1c3.9-11-0.2-21.4-2.9-31.7c-5.2-19.6-10.9-39-16.5-58.5
		C823.3,902.2,822.7,901.2,822,899.4z"/>
	<path d="M188.7,1047.1c4.9-0.7,9.7-1.6,14.6-2.1c32.3-3.4,62.9,3.9,92.7,15.4c28.6,11,55.4,25.9,83.2,38.9
		c18.6,8.7,37.2,17.2,57.4,21.2c11.6,2.3,23.2,2.8,34.6-0.5c2.9-0.8,5.7-1.9,8.4-3.2c7.8-3.9,7.8-4,1.2-9.5
		c-6.6-5.5-12.4-11.7-16.2-19.4c-9.6-19.5,3.1-41,24.9-42c15.7-0.7,27.5,10.9,29.4,28.9c1.3,12-0.6,23.3-7.5,33.4
		c-2,2.9-0.9,3.8,1.6,5.1c19.3,10.2,39.7,11.3,60.8,8.4c18.6-2.6,36.2-8.7,53.8-14.9c2.4-0.8,4.8-2.2,8.9-1.7
		c-3.6,2.4-6.1,4.2-8.7,5.7c-25.8,14.2-53,23.1-82.8,22.5c-14.2-0.3-27.5-4.3-40.2-10.5c-2.2-1.1-4.1-1.7-6.4,0
		c-24,17.5-50.2,17.2-77.2,9.1c-24.8-7.4-47.8-19.3-70.7-31.1c-27.5-14.2-54.6-29.1-84.3-38.7c-23.2-7.5-46.8-11.4-71.2-9.7
		c-6.8,0.5-13.5,2-20.2,2.9c-1.4,0.2-3.2,1.3-4.2-0.2c-1.2-1.8,0.6-3.1,1.7-4.2c7.6-8.6,14-17.9,17.3-28.9
		c8-27.3,0.9-50.5-19.7-69.8c-8.1-7.6-17.7-12.9-27.6-17.9c-2-1-5.9-1.6-5-4.5c0.7-2.2,4.5-1.5,6.9-1.2
		c20.2,2.2,36.1,12.1,48.4,27.8c20.6,26.4,19.3,62.9-2.7,87.8C189.4,1044.9,188.3,1045.4,188.7,1047.1z M504.7,1081.2
		c0.3-4.9-0.8-10-3.4-14.8c-1.5-2.9-3.6-5.4-7-5.9c-6.2-1-12,0.2-16.3,5.3c-4.2,4.9-4,10.3-1.4,15.9c4,8.6,10.8,14.7,18.1,20.2
		c2.1,1.6,3.1,0.5,4.3-1.3C502.8,1094.8,505,1088.7,504.7,1081.2z"/>
	<path d="M1291.1,1046c-6.9-7.3-12.1-15.6-15.1-25c-15.5-48.9,21.9-88.3,58.6-92.4c2.8-0.3,7.2-1.4,8,1.4c0.8,2.6-3.8,3.5-6.2,4.7
		c-9.5,4.9-18.8,10-26.8,17.3c-27.5,25-30.6,63.5-7.5,92.6c1.3,1.7,2.8,3.3,4.1,5c1.2,1.5,3.8,3,2.7,4.9c-1,1.9-3.6,0.5-5.5,0.3
		c-8.1-0.9-16.1-2.5-24.3-2.8c-25.7-1-50.2,4.2-74.3,12.7c-27.9,9.9-53.6,24.3-79.8,37.7c-24,12.3-48,24.7-74.4,31.2
		c-20.9,5.2-41.5,5.2-61.1-5.4c-1.3-0.7-2.9-1.2-3.9-2.3c-4.8-5.1-9.6-4.3-15.5-1.5c-26.5,12.6-53.6,10.4-80.8,2.4
		c-14.1-4.2-27.4-10.1-40-17.7c-1.8-1.1-3.5-2.3-6-4.1c3.9-0.6,6.2,0.7,8.6,1.6c17.5,6.3,35.2,12.4,53.8,14.9
		c20.1,2.8,39.8,2.2,58.5-7.3c4.1-2.1,5.1-3.6,2.5-8c-8.1-13.7-9-28.4-2.9-43.1c6.4-15.5,20.7-21.1,36.6-14.9
		c14.7,5.8,21.4,21.1,15.7,36.1c-4,10.5-11.5,18.3-20.2,24.9c-3.4,2.6-3.1,3.8,0.4,5.7c14.9,8.5,30.9,8.7,47.1,5.4
		c24.1-4.8,45.9-15.7,67.8-26.2c26.4-12.7,52.2-26.6,79.8-36.5c32-11.5,64.6-17,98.6-11.1C1290,1046.6,1290.3,1046.4,1291.1,1046z
		 M974.7,1080.3c0,8.2,1.9,14.7,6.2,20.6c1,1.4,1.9,2.8,3.9,1.2c7.8-6.2,15.5-12.7,18.9-22.5c2.9-8.1-0.7-15.3-8.8-18.3
		c-8.7-3.2-14.7-0.4-18.2,8.4C975.1,1073.4,974.9,1077.4,974.7,1080.3z"/>
	<path d="M335,930c0.1,6.1-0.8,12.3,0.5,18.4c0.4,2,1.1,3.8,2.2,5.5c2.7,4.5,1.8,6.5-3.2,7c-6.5,0.7-13,0.9-18.6,4.8
		c-1.2,0.8-2.6,0.5-3.6-0.7c-1.2-1.5-2-3.4-0.8-5.1c4.5-6.6,4-14.2,4.3-21.7c1.3-30.1,2.3-60.2,1.9-90.4c-0.1-9.6-1.3-18.9-5.5-27.6
		c-1.3-2.7-0.6-4.6,1.1-6.8c1.8-2.4,3.6-0.9,5.3-0.1c6.8,3,13.7,4.2,20.8,1.1c1.4-0.6,2.6-0.7,3.5,0.7c0.7,0.9,1.5,1.9,0.7,3.1
		c-5.8,8.6-4.9,18.5-5.4,28c-0.8,14-1,28-1.8,41.9c-0.2,3.4,0.9,4.1,3.8,3.8c8.9-1,17.9-2,26.8-3c2.6-0.3,3.7-1.4,3.8-4.2
		c0.8-18,2.1-35.9,1.9-53.9c-0.1-6.5-0.3-13-4.2-18.7c-1.1-1.6-0.9-3.2,0.2-4.6c1.1-1.4,2.4-0.9,3.5-0.1c7.3,4.9,14.6,3.1,21.9-0.1
		c1.7-0.7,3.3-2.7,5.4-0.5c2.1,2.2,0.3,3.9-0.6,5.8c-4.2,8.5-3.8,17.8-4.7,26.9c-3.4,31.3-4.6,62.8-5,94.2
		c-0.2,13.9-1.5,28,0.7,41.9c0.5,3.3,1.8,6.4,3.5,9.3c0.9,1.6,2.2,3,0.8,5c-1.4,1.9-3.2,1.4-5,0.8c-7.1-2.1-14.1-3.6-21.6-2.3
		c-3.5,0.6-6-3.6-3.8-6.9c4.7-7,4.6-14.8,4.9-22.6c0.6-15.3-0.6-30.6,0.9-45.9c0.5-5.4-0.9-6.5-6.4-6c-7.3,0.6-14.6,1.4-21.8,2.1
		c-3.4,0.3-5.3,1.9-5.3,5.8C335.9,920,335.3,925,335,930z"/>
	<path d="M1092.2,858.7c-0.6,19.9-1,38.3-1.7,56.8c-0.4,12.2-1.1,24.3,0.5,36.4c0.9,6.9,1,14.1,7.6,18.7c1.6,1.1,0.8,2.7,0.4,4.1
		c-0.5,1.4-1.4,2.4-2.9,2.2c-7.7-1.1-15.2-1.1-22.4,2.6c-1.6,0.9-2.8-0.5-3.6-1.8c-1.6-2.3-1.5-4.8,0.1-7c4-5.5,6.2-11.7,7.2-18.4
		c0.2-1.1,0.3-2.3,0.4-3.5c0.7-31.1,1.9-62.3,0.9-93.4c-0.3-8.8-1.6-17.5-5.7-25.6c-2.4-4.6-0.5-7.2,4.7-6.8
		c5.9,0.4,11.7,0.1,17.3-1.6c4.4-1.4,6.5,0.2,7.9,4.2c8.1,23.1,19.7,44.7,28.4,67.6c0.9,2.4,1.8,4.9,4.5,7.6c0-3.4,0-5.9,0-8.3
		c0-18.5,0-37,0-55.5c0-6.3-0.2-12.7-4.2-18.1c-1.5-2-0.5-3.8,0.7-5.5c1.1-1.7,2.5-2.4,4.6-1.9c5.6,1.4,10.9,0.5,15.9-2.2
		c1.5-0.8,3.3-2,5-0.1c1.5,1.6,2.1,3.7,1,5.5c-10.1,16.6-9.6,35.4-10.7,53.7c-1.9,31.9-1.3,63.9,0,95.9c0,1.2,0,2.3,0.2,3.5
		c0.6,5-1.5,7.5-6.5,8c-3,0.3-3.4-2.2-4.2-4.1c-6.7-17-13.1-34.1-20-51.1c-7.9-19.6-14.6-39.7-23.7-58.7
		C1093.6,861.4,1093.3,860.8,1092.2,858.7z"/>
	<path d="M754.6,880.7c-1,19.9-2.3,38.5-9.6,56c-3.6,8.6-8.4,16.3-15.5,22.4c-12.6,11-25.3,10.8-37.3-0.9
		c-9.3-9-14.1-20.5-16.9-32.8c-7-30.9-4.3-60.8,10.4-89.2c2.9-5.7,6.8-10.6,11.5-15c11.5-10.6,28-10.5,39.1,0.5
		c5.4,5.4,9.4,11.6,11.7,18.9C752.4,854.1,754.4,867.9,754.6,880.7z M730.9,892.7c0-14-1-27.9-2.4-41.8c-0.7-7.1-1.8-14.2-4.9-20.7
		c-3-6.3-7.8-7-12.6-1.9c-3.7,3.8-5.4,8.7-6.9,13.7c-9,30.2-10.2,60.9-5.5,91.9c1.2,7.7,3.2,15,8.9,20.7c4.6,4.5,9.3,4.1,12.8-1.4
		c2.4-3.8,3.9-8.1,5-12.5C729,924.8,731.4,908.9,730.9,892.7z"/>
	<path d="M461,932c-9,1.2-17.1,2.3-25.2,3.2c-2.4,0.3-3.1,1.6-3.6,3.4c-2.7,9.3-5.1,18.7-2.2,28.4c0.5,1.7,0.4,3.4-1.1,4.6
		c-1.7,1.4-3.1-0.1-4.5-0.9c-5.4-3.1-10.4-7.2-17.1-7.7c-3.1-0.2-3.4-3.3-1.8-4.8c11.2-10.2,12.8-24.5,16.6-37.8
		c7.1-24.7,14.8-49.3,20-74.6c1.9-9.3,4.1-18.6,0.7-28c-0.7-1.9,0.1-3.7,1.5-5c1.5-1.4,2.7,0.2,3.9,0.8c6.2,3.3,12,0.7,17.9-1
		c2.4-0.7,4.8-3.4,7.3-0.6c2.5,2.8,1.7,5.7-0.1,8.7c-2.2,3.7-2.2,7.9-1.8,12.1c2.2,22.7,6.8,45.1,9.9,67.6
		c2.8,20.1,5.7,40.2,10.3,60c1.4,6,3.7,11.4,8.1,15.7c2.1,2.1,3.1,4.5,1.7,7.2c-1.5,2.9-4,1.2-6.2,0.9c-6.1-1-12-0.4-17.3,3.1
		c-1.9,1.2-3.6,2.1-5.8,0.3c-2.1-1.7-2.2-3.3-1.9-6c1.2-11.2-0.5-22.2-2.1-33.3c-0.6-4.1-1.7-8.1-2.3-12.2
		C465.4,932.8,464.3,930.4,461,932z M435.6,922.8c9.4-2.3,17.6-4.2,25.8-6.3c2.6-0.7,2.2-2.7,1.8-4.9c-1.3-7.8-2.3-15.7-3.6-23.6
		c-1.6-9.9-3.4-19.8-5-29.7C446.7,879.1,442.5,900.6,435.6,922.8z"/>
	<path d="M702.1,1182.3c-4.9-0.1-9.1-3-10.1-8c-0.6-3-1.9-4.1-4.6-4.9c-7.2-2.1-10.4-8.2-7.8-14.6c2.6-6.4,9.3-8.9,15.7-5.7
		c1.9,1,3.2,1.7,5.1-0.3c7.8-8.2,15.8-16.2,23.8-24.2c2.3-2.3,2.7-4,0.1-6.5c-7.9-7.6-15.6-15.5-23.3-23.3c-1.8-1.8-3.1-2.1-5.6-0.9
		c-6.9,3.3-13.7,0.6-16-5.9c-2.2-6.1,1.3-12.5,8.4-14.5c2.5-0.7,3.7-1.5,4.3-4.4c0.8-4.6,4-7.6,8.8-8.4c4.3-0.7,8,0.5,10.5,4.1
		c2.8,3.9,3,8.2,0.4,12.2c-1.4,2.2-1.2,3.2,0.5,4.9c8.3,8.2,16.6,16.4,24.8,24.7c1.8,1.8,3,2.6,5.2,0.3c7.7-8.1,15.6-15.9,23.5-23.8
		c2.1-2.1,2.9-3.9,1.2-6.9c-2.3-4.2-1.3-8.4,1.9-12c3.1-3.5,7-4.4,11.3-3.2c4.5,1.2,7,4.5,7.5,9c0.3,2.5,0.9,3.3,3.4,3.5
		c4.8,0.4,7.9,3.3,9.2,7.9c1.2,4.5-0.2,8.3-3.7,11.2c-3.7,3.1-8,3.7-12.1,1.3c-2.7-1.5-4.2-0.8-6,1c-8.1,8.1-16.3,16.2-24.6,24.2
		c-1.7,1.7-1.7,2.7,0,4.4c8.5,8.4,17,16.9,25.4,25.4c1.5,1.5,2.5,1.9,4.6,0.5c4.1-2.7,8.6-2.6,12.6,0.5c3.5,2.6,4.9,6.4,3.9,10.6
		c-1.1,4.8-4.1,8-9.1,8.7c-2,0.3-3,0.9-3.5,3.2c-1.7,7.7-8.2,11.5-14.9,9.2c-6.2-2.1-8.9-8.9-5.9-15.6c1.3-2.9,0.7-4.4-1.3-6.4
		c-7.7-7.6-15.4-15.2-23-23c-2.3-2.4-3.8-2.3-6.1-0.1c-8.1,8.1-16.3,16.2-24.6,24.2c-2,1.9-1.2,3.1-0.2,5.1
		C716.3,1174,711,1182.4,702.1,1182.3z"/>
	<path d="M921.6,858.1c0,7.2,0.2,14.3-0.1,21.5c-0.1,3.9,1.4,5,5,4.5c9.4-1.3,18.4-3.5,25.2-10.6c1.9-1.9,3.5-2.1,5.7-0.9
		c2.6,1.4,2.3,3.2,1.5,5.4c-2.9,8.2-4.1,16.8-5.3,25.4c-0.2,1.7-0.2,3.5-2.5,3.6c-2.2,0.1-4.4-0.2-5.2-2.8c-0.2-0.6-0.2-1.3-0.3-2
		c-2.2-9.4-13.1-13.6-21.7-8.4c-1.7,1-1.9,2.6-1.9,4.3c-0.3,15.3-0.5,30.6-0.8,46c0,2.5,0.7,3.4,3.3,2.1
		c15.8-7.8,31.4-15.9,38.7-33.5c0.7-1.7,1.7-4,4.3-3.1c2.7,0.9,2.4,3.2,2.1,5.4c-1.4,9.1-2.2,18.1,2.1,26.9c1.6,3.3-0.7,6.7-4,6
		c-10.5-2.1-20.1,1.4-29.8,4.3c-11.8,3.6-23.2,8.2-33.5,15.2c-2,1.4-4,2.3-6.2,0.1c-2.1-2.1-3-4.1-1.3-7c2.7-4.7,3.6-10.1,3.6-15.4
		c0.1-37.7,0.1-75.3,0-113c0-4.6,0-9.4-3.7-13c-1.6-1.6-0.2-3.1,0.5-4.5c0.8-1.6,2.1-1.5,3.8-1.2c19.5,2.8,39,5.1,58.7,2.7
		c1.2-0.1,2.3-0.3,3.4-0.6c7.2-2,7.2-2,7.3,5.4c0,8.7-0.3,17.3,2.5,25.7c1.5,4.5-3,3.3-4.9,4.6c-2.3,1.6-3.2,0-3.7-2
		c-0.1-0.5-0.5-0.9-0.6-1.4c-2.5-13.3-11.2-18.8-24-19.3c-3.2-0.1-6.3-0.2-9.5-0.6c-7.1-0.8-7.5-0.6-8.1,6.7c0,0.3,0,0.7,0,1
		c0,7.5,0,15,0,22.5C922,858.1,921.8,858.1,921.6,858.1z"/>
	<path d="M1008,857.1c0,7.5,0.1,15-0.1,22.5c-0.1,3.5,1,4.9,4.6,4.4c9.6-1.2,18.8-3.3,25.7-10.7c1.9-2,3.5-2.1,5.7-0.9
		c2.5,1.4,2.3,3.2,1.5,5.5c-2.9,8.2-3.9,16.8-5.4,25.3c-0.3,1.6,0.1,3.6-2.4,3.6c-2.2,0-4.4,0-5.1-2.9c-0.2-1-0.6-1.9-0.8-2.9
		c-1.5-7.6-3.4-9.1-11-9c-11.8,0.2-12.5,0.9-12.6,12.4c-0.1,12.8-0.1,25.7-0.3,38.5c-0.1,3.6,0.7,4.5,4.1,2.7
		c6.5-3.4,13.1-6.6,19.1-10.8c7.3-5,13.2-11.1,17-19.2c0.7-1.5,1.5-3,2.4-4.4c0.8-1.3,1.9-2.4,3.7-1.8c1.8,0.6,2.2,1.9,2,3.5
		c-0.2,2.2-0.4,4.3-0.7,6.5c-0.9,7.4-0.8,14.6,2.4,21.5c2.3,4.8,0.1,7.4-5,6.6c-10.6-1.6-20.3,2.2-30.2,5.2
		c-11.3,3.5-22.1,8.2-32,14.9c-2,1.3-3.8,1.9-5.8-0.1c-1.7-1.8-2.9-3.7-1.7-6.2c5.3-11.5,4.4-23.6,4-35.8c-0.4-14.3-0.3-28.7,0-43
		c0.4-19.1,1.1-38.3-0.7-57.4c-0.2-2.1-1-3.9-2.5-5.3c-2-1.8-1.2-3.5-0.2-5.3c1.1-1.9,2.5-1.3,4.3-1.1c19.6,2.7,39.3,5,59.2,2.5
		c0.8-0.1,1.6-0.3,2.4-0.5c7.3-2,7.3-2,7.2,5.9c-0.1,8.3-0.4,16.7,2.5,24.7c1.6,4.5-2.3,3.7-4.3,4.9c-2.4,1.5-3.6,0.5-4.4-1.8
		c-0.1-0.5-0.3-1-0.4-1.4c-5.5-17.3-9.6-17.3-26.6-19.4c-2.8-0.3-5.7-0.2-8.4-0.8c-4.5-1-6.3,0.9-6.3,5.1c-0.1,8.1,0,16.3,0,24.5
		C1008.8,857.1,1008.4,857.1,1008,857.1z"/>
	<path d="M1066.6,763c-7.3,0-14.6-0.1-22,0c-3.9,0.1-5.2-1-4.5-5.2c5.3-32.1,10.5-64.3,15.7-96.4c1-6.1,2.2-12.1,3.3-18.1
		c0.3-2,0.7-3.5,3.4-3c2.5,0.5,3.1,2,2.3,3.9c-4.3,10,1.6,15,9,19.9c20.2,13.3,41.9,18.9,65.9,15c2.6-0.4,4.7-1.4,6.7-3
		c4.2-3.3,8.5-6.4,12.7-9.7c1.5-1.2,2.5-1.1,3.6,0.4c1.2,1.5,1.8,2.6-0.1,4.1c-4,3-7.7,6.3-11.8,9.2c-2.5,1.8-3.8,3.9-4.2,6.9
		c-2.3,17.6-2.9,35.2,1.5,52.5c0.6,2.2,1.3,4.5,2.1,6.6c4.7,12.2,5.2,12.6,18.2,12.7c2.9,0,5.1,0.1,4.1,4c-0.6,2.1-2.3,1.7-3.6,1.7
		c-7,0.1-14,0.5-20.9,0.2c-16.6-0.9-33.3-0.4-49.9-1C1087.5,763.5,1077.1,763.1,1066.6,763z M1139.7,689.2
		c-6.4,4.8-11.9,8.9-17.3,13c-1.2,0.9-2.1,2.1-2.2,3.7c-1,14-1.1,28,4.6,41.2c4.3,9.9,7.1,11.6,17.8,11.1c1.2-0.1,2.3,0,3.5,0
		c2.4,0.1,3-0.7,1.8-2.9c-7.8-14.9-9.4-31-9-47.5C1138.9,702,1139.4,696.2,1139.7,689.2z M1062.3,662.7c-1,4.9-1.6,9.2-2.7,13.3
		c-0.9,3.3,0.2,5.3,2.5,7.4c11.5,10.3,25,15.1,40.2,16.8c12.9,1.5,21-5.5,29.7-14C1105.5,687.4,1083,679.3,1062.3,662.7z
		 M1058.2,688c-1,5.1-1.7,9.5-2.8,13.8c-1,3.8-0.1,6.7,3,9.1c12.6,9.8,30.3,15.7,47.3-4.7C1087.9,705.5,1072,700.1,1058.2,688z
		 M1124.2,758c-10.2-15.3-10.5-31.5-10.5-48.6c-6.1,4.5-11.2,8.4-16.4,12.3c-1.1,0.8-2.1,1.6-2.1,3.2c-0.2,11.4,1.7,22.2,9.8,31
		c1.3,1.4,2.6,2.3,4.7,2.2C1114.1,757.9,1118.6,758,1124.2,758z M1088.8,728.7c-3.9,2.8-6.8,5.3-10.1,7.2c-4.8,2.7-5.5,6.7-4.5,11.4
		c0.5,2.6,1.5,5.1,2.5,7.5c0.5,1.2,1.2,2.5,2.8,2.5c5.8,0,11.7,0,18.7,0C1091.7,748.1,1090,738.9,1088.8,728.7z M1053.9,714.9
		c-0.9,4.2-1.4,7.8-2.4,11.2c-1.3,4.3,0.6,6.4,4.2,8.1c8.7,4,15.8,1.7,24.4-8.3C1070.3,724.8,1061.6,721.5,1053.9,714.9z
		 M1070.4,756.7c-0.9-3.3-1.7-6.3-2.4-9.3c-0.4-1.6-1.1-2-2.3-1c-4.1,3.3-9,5.8-13,10.3C1059,756.7,1064.6,756.7,1070.4,756.7z
		 M1059.5,742.1c-10.6-4.2-10.6-4.2-11.5,6.7c-0.1,0.8,0,1.6,0,3.1C1052.4,748.7,1056.1,745.7,1059.5,742.1z"/>
	<path d="M364.6,765c-13.8,0-33.1,0-52.4,0c-2,0-5,1.2-4.9-2.9c0.1-3.9,2.9-3.3,4.9-2.9c9.3,1.7,13.6-3.2,16.6-11
		c6.5-16.6,6.1-33.8,5.8-51.2c-0.2-12.2-6.6-19-15.8-24.8c-2-1.2-4-2.6-1.4-5.4c1.3-1.4,2.2-1.6,3.7-0.3c1.7,1.6,3.9,2.7,5.5,4.3
		c7.6,8.1,17.3,9.8,27.8,9.6c22.2-0.3,41.7-7.6,58.7-21.8c2.8-2.4,4.4-4.7,3-8.5c-0.7-1.8-0.5-3.9-0.8-5.9c-0.4-2-0.2-3.5,2.3-4
		c2.6-0.5,3.1,0.7,3.4,2.9c3.6,22.8,7.3,45.7,11,68.5c2.5,15.4,4.8,30.9,7.5,46.3c0.6,3.3,0,4.2-3.4,4.5
		C414.1,764,392.1,762.3,364.6,765z M330.5,758.2c3.1,1.1,5.6-0.2,8,0.3c8.6,1.6,12.8-3.5,16-10.3c0.7-1.5,1.4-3,1.9-4.6
		c4.3-12.4,3.7-25.2,3.2-38c0-1.1-0.5-2-1.2-2.6c-5.7-4.5-11.2-9.2-18.1-13.3C341.6,713.5,342.6,736.6,330.5,758.2z M348.4,687.1
		c4.1,3.3,8.3,6.6,12.4,10c2,1.7,4.3,2.4,6.8,2.6c16.3,1.3,31.2-2.6,44.8-12c6.6-4.6,10-9.7,6.9-17.8c-0.4-0.9-0.4-2-0.4-2.9
		c-0.1-3.6-1.4-3.8-4.1-1.7c-10.4,7.8-21.8,13.9-34.5,17.5C369.9,685.8,359.4,686.7,348.4,687.1z M355.8,758c4.7,0,8.4-0.2,12,0.1
		c4.1,0.4,6.9-1.4,9.2-4.6c6.1-8.5,7.6-18.2,7.7-28.3c0-1-0.1-2-1-2.7c-5.5-4.2-11-8.4-17.2-13.1C365.9,726.7,365.8,743.1,355.8,758
		z M373,706.1c5,4.1,8.9,7.2,12.7,10.3c1.5,1.2,3,2.5,5.1,2.8c10.2,1.7,19.4-0.3,27.9-6.2c4.7-3.3,7.8-7,5.4-13.3
		c-0.9-2.4-1-5.2-1.2-7.8c-0.3-3-1-3.4-3.5-1.5C406.2,700.6,391.3,705.9,373,706.1z M381.6,757.4c5,0,8.9,0,12.8,0
		c8.2-0.1,9.2-0.8,10.8-9c0.6-3.3,2.1-7.2-0.8-9.9c-3.8-3.5-8-6.7-12.9-9.2C389.6,739.1,388,748.6,381.6,757.4z M426.4,714.8
		c-8.1,6.9-16.9,10.1-27.7,11.1c3.2,2.7,5.4,4.4,7.5,6.3c5.2,4.9,11.1,4.5,17.1,2.2c4-1.5,6.7-3.9,4.9-9
		C427.2,722.3,427.1,718.9,426.4,714.8z M412.9,745.4c-1.4,4.2-2.5,7.8-3.6,11.1c5.9,0,11.6,0,18.4,0c-3.7-2.9-6.4-5.1-9.1-7.2
		C416.9,748.1,415.1,746.9,412.9,745.4z M431.8,751.5c-0.1-13-0.1-13-10.8-9.8c-0.2,0.1-0.3,0.5-0.5,0.9
		C423.5,746,427.6,748.3,431.8,751.5z"/>
	<path d="M582.5,933.6c-2.6,10.7-5.1,21.3-7.8,32c-1.1,4.4-4.2,3.9-7.5,2.8c-11.5-3.9-23.1-4.6-34.7-0.2c-3.2,1.2-6.3,2.9-9.5,4.4
		c-1.9,0.9-3.6,3.7-6.1,1.2c-2.8-2.8-6.9-5.7-5.5-10c6.9-20.4,4.7-41.5,5.2-62.3c0.4-18.1,0.2-36.3-0.2-54.5
		c-0.1-7.2,0.2-14.6-3.9-21.3c-2.2-3.5,0.7-7.9,4.8-8c6.9-0.1,13.6-1.3,19.8-4.2c1.4-0.7,2.9-1.3,4.2-0.1c1.3,1.1,2.1,2.8,1.4,4.5
		c-4.3,9.2-3.8,19.2-4.5,28.9c-2,26.6-3,53.2-2.7,79.8c0.1,7.7,0,15.3,0,23c0,6.1,0.3,6.3,6.2,4.3c13.8-4.7,26.7-10.6,34.1-24.3
		c0.7-1.3,1.7-2.3,3.2-1.3C581,929.5,583.3,930.6,582.5,933.6z"/>
	<path d="M662.9,933.7c-2.5,10.5-5.1,21-7.6,31.5c-1.1,4.6-4.3,4.3-7.8,3.1c-12.4-4.3-24.8-4.4-37,0.7c-2.3,1-4.4,2.3-6.7,3.3
		c-2.1,0.9-3.9,4-6.5,1.3c-2.7-2.8-6.8-5.7-5.2-10.1c7-19,4.5-38.8,4.9-58.3c0.5-21.8-0.1-43.6-0.1-65.4c0-4.4-0.9-8.5-3-12.4
		c-3.1-5.7-0.7-9.4,5.7-9.6c6.2-0.2,12.2-1.4,17.9-4.1c1.6-0.8,3.2-1.5,4.6-0.1c1.3,1.2,1.7,3,1,4.6c-4.4,10.6-3.7,21.9-4.6,32.9
		c-2.8,33-2.2,66.2-2.5,99.3c0,4,0.8,5.4,5,3.9c14-4.9,27.5-10.5,35.2-24.4c0.7-1.3,1.6-2.8,3.5-1.6
		C661.4,929.6,663.8,930.7,662.9,933.7z"/>
	<path d="M589.7,725.1c-0.5,6.3-1.2,12.6,2.4,18.4c1.1,1.9,0.3,3.4-2.2,3.8c-4.8,0.6-9.5,1.3-13.9,3.5c-2.9,1.5-4.5-1.5-3.5-3.4
		c5.1-10.5,2.7-21.6,3.6-32.5c1.4-16.3,0.6-32.6,0.8-48.9c0.1-6.6-1-12.9-3.5-19c-0.7-1.8-1.3-3.4,0.4-5c1.5-1.4,3-0.9,4.6-0.2
		c4.4,1.9,8.9,2.6,13.6,0.9c2.8-1,4.2,0.6,3.1,3c-4.6,10.6-2.8,22-3.9,33c-0.5,5.3-0.2,10.7-0.5,16c-0.2,2.7,0.7,3.7,3.3,3.3
		c5.9-0.8,11.9-1.5,17.8-2.1c2.8-0.3,2.9-2.1,3.1-4.2c1.1-8.8,0.6-17.6,1.2-26.4c0.4-5.6,0.7-11.2-0.2-16.9
		c-0.4-2.7-0.8-5.2-2.3-7.5c-0.7-1-0.9-2.2,0-3.2c1-1.1,2.1-0.6,3.1,0c4.8,2.8,9.6,1.9,14.4-0.1c1.5-0.6,3.2-1.7,4.6,0
		c1.1,1.4,0,2.8-0.6,4.2c-3.2,8.4-2.9,17.4-3.8,26.1c-2.2,20.5-2.5,41.2-3,61.8c-0.2,7.6-0.3,15.3-0.1,22.9c0.1,4.2,1,8.3,3.2,11.9
		c0.7,1.2,1.4,2.4,0.6,3.7c-0.9,1.4-2.3,1-3.6,0.7c-4.8-1.4-9.7-2-14.8-1.5c-3.6,0.3-4.9-2.2-3.6-4.8c4.6-8.8,3.4-18.1,3.7-27.4
		c0.2-7.5,0-15,0.2-22.5c0.1-3.1-0.8-4.1-4-3.7c-4.6,0.7-9.3,0.9-13.9,1.2c-3.8,0.2-5.9,1.7-5.7,5.8
		C590.1,719.1,589.8,722.1,589.7,725.1z"/>
	<path d="M842.1,666.9c-0.3,16.2-9.9,40.5-34.9,48.1c-3.2,1-4.2,2.4-4.2,5.5c-0.2,8.3-0.6,16.6-0.9,24.9c-0.1,3.6,0.7,6.9,3.5,9.5
		c2.9,2.7,1.6,4.9-1.4,5.9c-5.5,1.9-11.1,3.6-16.7,5.1c-3.8,1-5.7-0.6-4.3-3.9c3.1-7,3.1-14.4,3.2-21.6c0.4-26.8,2.1-53.6,1.1-80.4
		c-0.2-4.8-0.7-9.7-4.5-13.3c-1-1-0.9-1.9-0.3-3.1c0.8-1.4,1.8-2.1,3.2-1.4c7,3.2,13.7,0.8,20.4-0.9c4.7-1.2,9.5-1.6,14.4-1.4
		c11,0.3,18.2,6.2,20.2,17C841.5,660.3,841.7,663.6,842.1,666.9z M803,688.3c0,5.3,0,10.6,0,16c0,2.5,1,3,2.9,1.6
		c0.9-0.7,1.9-1.4,2.5-2.4c7.2-9.8,13-20.2,14.9-32.3c0.9-5.8,1.7-12-1.7-17.5c-2.4-3.9-8-6.5-12.1-5.2c-4,1.3-3.2,5.1-3.6,8
		C804.5,667,803.9,677.7,803,688.3z"/>
	<path d="M775.7,665.4c1.2,20.8-13.5,42.3-34.6,49.6c-3.1,1.1-4.1,2.4-4.2,5.6c-0.2,8.5-0.6,17-0.9,25.4c-0.1,3.5,0.8,6.5,3.5,9
		c3,2.7,1.6,4.9-1.4,5.9c-5.5,1.9-11.1,3.6-16.7,5.1c-3.8,1-5.7-0.6-4.3-3.9c3.5-7.9,3.2-16.4,3.3-24.6c0.4-25.1,1.9-50.2,1.2-75.4
		c-0.2-5.5-0.4-11-4.7-15.2c-1-1-0.9-2-0.3-3.1c0.7-1.4,1.8-2.1,3.2-1.5c7,3.2,13.7,0.9,20.4-0.9c4.7-1.2,9.5-1.6,14.4-1.5
		c11.2,0.3,18.4,6.4,20.3,17.5C775.4,660.1,775.5,662.8,775.7,665.4z M737.6,687.9c-0.2,4.8-0.5,9.6-0.6,14.5c0,1.4-0.7,3.5,0.7,4.1
		c1.7,0.7,3.1-1,4.1-2.2c9.8-13.2,17.2-27.3,15.8-44.5c-0.4-5.2-3.1-9.1-8.3-10.8c-5.9-2-8.3-0.5-9.2,5.7
		C738.5,665.6,738,676.7,737.6,687.9z"/>
	<path d="M686.6,757.7c0-9.2-1.4-18.2-3.1-27.2c-0.5-2.6-1.5-4.1-4.8-3.4c-4.5,0.9-9.2,1.7-13.8,1.8c-4.3,0.1-5.7,2.5-6.5,6
		c-1.2,5.2-2.2,10.5-0.9,15.8c0.4,1.8,0.2,3.5-1.1,4.6c-1.3,1.1-2.3-0.7-3.4-1.2c-3.5-1.9-6.8-4.2-10.9-4.7
		c-2.7-0.3-3.1-2.5-1.7-3.9c8.8-8.9,9.8-20.9,13-31.9c5.2-17.7,10.8-35.3,13.9-53.5c0.8-4.6,1-9.2,0.2-13.9
		c-0.7-4.3,0.6-5.4,4.5-3.8c4.7,1.9,8.8-0.3,13-1.7c1.4-0.5,2.9-1.2,4.1,0.2c1.1,1.2,1.6,2.9,0.8,4.2c-3.7,6-2.5,12.4-1.4,18.5
		c4.7,27.4,7.5,55.1,13.3,82.3c1,4.8,2.5,9.3,6.2,12.8c1.4,1.4,2.1,3,1.2,5c-1,2.1-2.7,1.1-4.3,0.9c-4-0.6-7.9-0.2-11.6,1.7
		c-4.9,2.6-7,1.2-6.6-4.4C686.6,760.3,686.6,759,686.6,757.7z M661.9,719.9c6.2-1.6,11.4-2.9,16.5-4.1c1.8-0.4,3.3-1.3,3-3.3
		c-1.9-12.3-3.9-24.7-5.9-37C669.6,689.7,666.3,704.4,661.9,719.9z"/>
	<path d="M886.9,688c7.3-14.6,15.7-27.1,19.2-41.9c0.5-2.2,0.4-4.2,0.1-6.4c-0.5-4.3,1.9-6.1,5.6-4.3c4.5,2.2,9,4.4,14,5.1
		c1.2,0.2,2.2,0.7,2.1,2.2c0,1.4-0.8,2.1-2.1,2.3c-6.5,0.9-10,5.6-13.1,10.6c-7.1,11.5-13.4,23.4-18.8,35.8c-1,2.3-1.8,4.7-1.7,7.2
		c0.4,19.6,1,39.3,1.2,58.9c0,3.3,3.5,7.1,0.5,9.4c-2.9,2.2-5.3-2.6-8.5-3.2c-2.7-0.5-5.2-0.8-7.9-0.1c-1.2,0.3-2.5,1.4-3.6,0
		c-1.1-1.4-1.6-3-0.7-4.7c9-16.1,4.5-33.6,5.3-50.5c0.1-1.5-0.8-3.2-1.5-4.7c-7.7-16.6-15.6-33.1-24.3-49.2
		c-0.3-0.6-0.6-1.2-0.9-1.8c-4.5-7.3-4.5-7.3,4-7.8c3.9-0.3,7.4-1.8,10.8-3.6c3.2-1.7,5.5-0.2,4.7,2.8c-2.5,9.5,2.6,16.8,6.2,24.5
		C880.2,674.8,883.3,680.7,886.9,688z"/>
	<path d="M372.7,1047.2c0.1-6.2,4.7-10.7,10.7-10.7c6.1,0,10.7,4.8,10.6,10.8c-0.1,6.1-5.4,11-11.4,10.8
		C376.8,1057.9,372.6,1053.2,372.7,1047.2z"/>
	<path d="M1107.2,1047.3c-0.1,6.1-5.2,11-11.3,10.9c-5.7-0.2-10.2-5-10.1-10.8c0.1-6.3,5.1-11,11.3-10.8
		C1102.9,1036.7,1107.3,1041.3,1107.2,1047.3z"/>
	<path d="M1272,649.6c-0.1,5.8-5.2,10.7-11,10.6c-5.4-0.2-10.1-4.9-10.1-10.3c0-5.7,5.1-10.8,10.8-10.8
		C1267.5,639,1272.1,643.8,1272,649.6z"/>
	<path d="M228.5,649.4c0,6-4.8,10.8-10.7,10.7c-5.5-0.1-10-4.6-10.1-10.2c-0.1-6,4.6-10.9,10.5-11
		C224,638.9,228.6,643.5,228.5,649.4z"/>
	<path d="M970.8,1172.5c-3.9,0-6.9-3.1-6.7-7c0.1-4,3.4-7.1,7.5-7c4,0.1,6.7,2.9,6.6,7C978.1,1169.7,975.1,1172.5,970.8,1172.5z"/>
	<path d="M1364.6,895.2c-3.9-0.1-6.9-3.3-6.7-7.1c0.2-3.9,3.7-7.2,7.5-7.1c3.8,0.1,6.7,3.3,6.6,7.2
		C1371.9,892.4,1368.8,895.3,1364.6,895.2z"/>
	<path d="M515.5,1165.6c-0.1,4.1-3.4,7-7.6,6.8c-3.9-0.1-6.4-2.9-6.4-6.8c0.1-4.3,3.1-7.2,7.3-7.1
		C512.8,1158.6,515.6,1161.6,515.5,1165.6z"/>
	<path d="M114.8,881.1c3.7-0.1,7,3.1,7,6.9c0.1,4-3.1,7.2-7.2,7.3c-4.1,0.1-6.9-2.6-6.9-6.7C107.7,884.5,110.8,881.1,114.8,881.1z"
		/>
	<path d="M1025.5,534.9c0,3.9-3,6.9-6.9,7c-3.7,0.1-6.7-2.8-6.7-6.5c-0.1-4.1,3.2-7.4,7.2-7.3
		C1022.8,528.3,1025.5,531.1,1025.5,534.9z"/>
	<path d="M460.9,528.2c3.7-0.1,6.8,2.7,7.1,6.3c0.3,3.9-3.1,7.4-7.1,7.5c-3.7,0.1-6.7-2.9-6.8-6.6
		C454,531.7,457.2,528.3,460.9,528.2z"/>
</g>
</svg>
